<svg width="512" height="512" viewBox="0 0 512 512" fill="none" xmlns="http://www.w3.org/2000/svg">
  <defs>
    <linearGradient id="bg" x1="64" y1="48" x2="452" y2="470" gradientUnits="userSpaceOnUse">
      <stop offset="0%" stop-color="#163C6D"/>
      <stop offset="100%" stop-color="#0B2340"/>
    </linearGradient>
    <linearGradient id="red" x1="74" y1="110" x2="438" y2="430" gradientUnits="userSpaceOnUse">
      <stop offset="0%" stop-color="#F44336"/>
      <stop offset="100%" stop-color="#B5122A"/>
    </linearGradient>
    <clipPath id="clip">
      <rect x="74" y="104" width="364" height="304" rx="44"/>
    </clipPath>
  </defs>

  <rect x="20" y="20" width="472" height="472" rx="106" fill="url(#bg)"/>
  <rect x="58" y="58" width="396" height="396" rx="88" fill="#F8FAFE" fill-opacity="0.08"/>
  <g clip-path="url(#clip)">
    <rect x="74" y="104" width="364" height="304" rx="44" fill="#FFFFFF"/>
    <rect x="74" y="104" width="364" height="34" fill="url(#red)"/>
    <rect x="74" y="172" width="364" height="34" fill="url(#red)"/>
    <rect x="74" y="240" width="364" height="34" fill="url(#red)"/>
    <rect x="74" y="308" width="364" height="34" fill="url(#red)"/>
    <rect x="74" y="376" width="364" height="32" fill="url(#red)"/>
    <rect x="74" y="104" width="162" height="170" fill="#163C6D"/>
    <g fill="#FFFFFF">
      <circle cx="105" cy="138" r="7"/>
      <circle cx="137" cy="138" r="7"/>
      <circle cx="169" cy="138" r="7"/>
      <circle cx="201" cy="138" r="7"/>
      <circle cx="121" cy="166" r="7"/>
      <circle cx="153" cy="166" r="7"/>
      <circle cx="185" cy="166" r="7"/>
      <circle cx="105" cy="194" r="7"/>
      <circle cx="137" cy="194" r="7"/>
      <circle cx="169" cy="194" r="7"/>
      <circle cx="201" cy="194" r="7"/>
      <circle cx="121" cy="222" r="7"/>
      <circle cx="153" cy="222" r="7"/>
      <circle cx="185" cy="222" r="7"/>
      <circle cx="105" cy="250" r="7"/>
      <circle cx="137" cy="250" r="7"/>
      <circle cx="169" cy="250" r="7"/>
      <circle cx="201" cy="250" r="7"/>
    </g>
  </g>

  <path d="M145 170H192V123H225V170H272V203H225V250H192V203H145V170Z" fill="#FFFFFF"/>
  <path d="M318 196C318 158.444 348.444 128 386 128C423.556 128 454 158.444 454 196C454 233.556 423.556 264 386 264C348.444 264 318 233.556 318 196Z" fill="#FFFFFF" fill-opacity="0.14"/>
  <path d="M386 150L398.802 175.938H427.425L404.212 193.12L413.271 219.994L386 203.61L358.729 219.994L367.788 193.12L344.575 175.938H373.198L386 150Z" fill="#FFFFFF"/>

  <text x="256" y="360" text-anchor="middle" fill="#FFFFFF" font-size="86" font-weight="700" font-family="Space Grotesk, DM Sans, sans-serif" letter-spacing="4">HF</text>
  <text x="256" y="420" text-anchor="middle" fill="#DCE9FB" font-size="34" font-weight="700" font-family="DM Sans, sans-serif" letter-spacing="6">HOLMQUIST</text>
</svg>
